<!DOCTYPE svg PUBLIC "-//W3C//DTD SVG 1.1//EN" "http://www.w3.org/Graphics/SVG/1.1/DTD/svg11.dtd">
<!-- Uploaded to: SVG Repo, www.svgrepo.com, Transformed by: SVG Repo Mixer Tools -->
<svg width="800px" height="800px" viewBox="0 0 1024 1024" fill="#ffffff" class="icon" version="1.1" xmlns="http://www.w3.org/2000/svg">
<g id="SVGRepo_bgCarrier" stroke-width="0"/>
<g id="SVGRepo_tracerCarrier" stroke-linecap="round" stroke-linejoin="round"/>
<g id="SVGRepo_iconCarrier">
<path d="M512.476 519.998c-4.414 0-8.078-3.576-8.078-7.998s3.5-8 7.922-8h0.156c4.422 0 7.998 3.578 7.998 8s-3.576 7.998-7.998 7.998z" fill=""/>
<path d="M512 543.996c-17.646 0-31.996-14.36-31.996-31.996 0-17.646 14.35-31.996 31.996-31.996 17.652 0 31.996 14.35 31.996 31.996 0 17.636-14.344 31.996-31.996 31.996z m0-47.994c-8.82 0-15.998 7.178-15.998 15.998 0 8.818 7.178 15.998 15.998 15.998 8.818 0 15.998-7.18 15.998-15.998 0-8.82-7.18-15.998-15.998-15.998z" fill=""/>
<path d="M791.962 1023.934H232.036c-30.872 0-55.992-25.122-55.992-55.992V392.016c0-4.422 3.578-8 7.998-8h655.916c4.422 0 8 3.578 8 8v575.926c0 30.87-25.124 55.992-55.996 55.992z m-599.92-623.92v567.928c0 22.058 17.944 39.994 39.994 39.994h559.928c22.06 0 39.994-17.936 39.994-39.994V400.014H192.042z" fill=""/>
<path d="M775.964 384.016a7.994 7.994 0 0 1-7.998-7.998V88.054c0-4.422 3.576-8 7.998-8s8 3.578 8 8v287.962c0 4.422-3.578 8-8 8zM280.03 368.018a7.994 7.994 0 0 1-7.998-7.998V8.064c0-4.42 3.576-7.998 7.998-7.998s8 3.578 8 7.998V360.02a7.994 7.994 0 0 1-8 7.998z" fill=""/>
<path d="M695.976 16.064H280.03a7.994 7.994 0 0 1-7.998-8 7.994 7.994 0 0 1 7.998-7.998h415.948a7.994 7.994 0 0 1 7.998 7.998 7.998 7.998 0 0 1-8 8z" fill=""/>
<path d="M775.964 96.052a7.974 7.974 0 0 1-5.656-2.342L690.32 13.72a8 8 0 0 1 11.31-11.312l79.99 79.99a8 8 0 0 1-5.656 13.654zM679.976 112.05a7.994 7.994 0 0 1-7.998-7.998V40.06a7.994 7.994 0 0 1 7.998-7.998c4.422 0 8 3.578 8 7.998v63.992a7.994 7.994 0 0 1-8 7.998z" fill=""/>
<path d="M743.968 112.05h-63.992a7.994 7.994 0 0 1-7.998-7.998c0-4.422 3.578-8 7.998-8h63.992c4.422 0 8 3.578 8 8a7.994 7.994 0 0 1-8 7.998zM687.976 248.034H368.018a7.994 7.994 0 0 1-7.998-7.998c0-4.422 3.576-8 7.998-8h319.958c4.422 0 8 3.578 8 8a7.994 7.994 0 0 1-8 7.998zM687.976 312.026H368.018c-4.422 0-7.998-3.578-7.998-8s3.576-8 7.998-8h319.958c4.422 0 8 3.578 8 8s-3.578 8-8 8zM248.034 368.018a7.994 7.994 0 0 1-7.998-7.998V32.062c0-4.422 3.576-8 7.998-8s8 3.578 8 8V360.02a7.994 7.994 0 0 1-8 7.998z" fill=""/>
<path d="M839.958 368.018a7.976 7.976 0 0 1-6.656-3.562l-31.996-47.994a7.99 7.99 0 0 1 2.218-11.092 7.986 7.986 0 0 1 11.094 2.218l31.996 47.994a7.988 7.988 0 0 1-2.218 11.092 8.03 8.03 0 0 1-4.438 1.344z" fill=""/>
<path d="M184.034 368.018a7.992 7.992 0 0 1-6.646-12.434l31.996-47.994a7.982 7.982 0 0 1 11.092-2.218 7.992 7.992 0 0 1 2.218 11.092l-31.996 47.994a7.992 7.992 0 0 1-6.664 3.56z" fill=""/>
<path d="M743.968 927.946h-463.94a7.994 7.994 0 0 1-7.998-7.998V823.96a7.992 7.992 0 0 1 7.998-7.998h463.94c4.422 0 8 3.576 8 7.998v95.988a7.994 7.994 0 0 1-8 7.998z m-455.938-15.998h447.942v-79.99H288.03v79.99z" fill=""/>
<path d="M695.976 879.952H328.024c-4.422 0-8-3.576-8-7.998s3.578-8 8-8h367.954c4.42 0 7.998 3.578 7.998 8s-3.58 7.998-8 7.998z" fill=""/>
<path d="M520.006 719.972a8.012 8.012 0 0 1-7.162-4.422c-0.758-1.516-18.35-37.384 1.5-57.226 4.186-4.188 1.954-12.154-1.93-23.808-4.266-12.782-9.57-28.684 1.93-40.184 11.404-11.404-1.282-36.338-1.414-36.588a8.016 8.016 0 0 1 3.328-10.81c3.896-2.032 8.716-0.594 10.802 3.294 0.766 1.438 18.56 35.45-1.406 55.416-4.188 4.186-1.954 12.154 1.93 23.808 4.256 12.78 9.568 28.684-1.93 40.182-9.732 9.734-1.984 31.792 1.5 38.762a8.008 8.008 0 0 1-7.148 11.576z" fill=""/>
</g>
</svg>