<!DOCTYPE svg PUBLIC "-//W3C//DTD SVG 1.1//EN" "http://www.w3.org/Graphics/SVG/1.1/DTD/svg11.dtd">
<!-- Uploaded to: SVG Repo, www.svgrepo.com, Transformed by: SVG Repo Mixer Tools -->
<svg fill="#ffffff" height="800px" width="800px" version="1.1" id="Layer_1" xmlns="http://www.w3.org/2000/svg" xmlns:xlink="http://www.w3.org/1999/xlink" viewBox="0 0 512 512" xml:space="preserve" stroke="#ffffff" transform="rotate(0)">
<g id="SVGRepo_bgCarrier" stroke-width="0"/>
<g id="SVGRepo_tracerCarrier" stroke-linecap="round" stroke-linejoin="round"/>
<g id="SVGRepo_iconCarrier"> <g style="opacity:0.2;enable-background:new ;"> <g> <path d="M196.231,414.327c-3.124-3.124-8.192-3.124-11.317,0l-45.598,45.598c-3.125,3.126-3.125,8.193,0,11.319 c1.562,1.561,3.611,2.343,5.659,2.343s4.096-0.781,5.659-2.343l45.598-45.598C199.356,422.52,199.356,417.454,196.231,414.327z"/> </g> </g> <g> <g> <path d="M504.306,182.75c-9.507-9.505-24.978-9.505-34.486,0l-79.515,79.517c-1.037,1.037-2.725,1.038-3.762,0.001 c-0.679-0.679-0.78-1.47-0.78-1.882c0-0.412,0.101-1.204,0.78-1.881l79.515-79.516c9.508-9.508,9.508-24.979,0.001-34.487 c-4.605-4.606-10.73-7.143-17.243-7.143c-6.513,0-12.638,2.536-17.243,7.142l-79.517,79.516c-0.678,0.679-1.469,0.779-1.88,0.779 c-0.412,0-1.203-0.101-1.882-0.78c-0.678-0.678-0.779-1.469-0.779-1.881s0.101-1.204,0.779-1.881l79.516-79.516 c9.508-9.508,9.508-24.978,0-34.487c-6.143-6.144-14.772-8.292-22.679-6.496c0.063-1.413,0.106-2.826,0.106-4.238 C405.236,42.849,362.386,0,309.717,0c-19.269,0-37.609,5.629-53.41,16.337C240.507,5.629,222.167,0,202.9,0 c-19.269,0-37.609,5.629-53.41,16.337C133.69,5.629,115.349,0,96.082,0C43.411,0,0.562,42.849,0.562,95.518 c0,43.341,29.018,80.026,68.644,91.664v219.277c0,11.955,9.726,21.681,21.681,21.681h45.216l-27.968,27.968 c-12.767,12.769-12.767,33.546,0.001,46.315c6.384,6.383,14.771,9.577,23.157,9.577c8.387,0,16.773-3.193,23.158-9.577 l74.283-74.283h86.177c11.955,0,21.681-9.726,21.681-21.681v-57.836c5.017,2.139,10.46,3.269,16.078,3.269 c10.951,0,21.247-4.265,28.99-12.008l122.646-122.646C513.815,207.729,513.815,192.258,504.306,182.75z M83.024,173.94 c-1.307-0.218-2.61-0.467-3.908-0.75c-35.718-7.796-62.549-39.652-62.549-77.673c0-43.843,35.669-79.512,79.514-79.512 c17.719,0,34.497,5.719,48.519,16.541c2.88,2.224,6.898,2.224,9.778,0c14.022-10.822,30.8-16.541,48.52-16.541 c17.719,0,34.497,5.719,48.519,16.541c2.88,2.224,6.898,2.224,9.778,0c14.022-10.822,30.8-16.541,48.519-16.541 c43.844,0,79.513,35.669,79.513,79.513c0,5.544-0.591,11.112-1.755,16.581l-61.178,61.178c-5.47,1.163-11.036,1.755-16.581,1.755 c-17.719,0-34.497-5.719-48.52-16.541c-2.88-2.224-6.898-2.224-9.778,0c-14.023,10.822-30.8,16.541-48.519,16.541 c-17.72,0-34.497-5.719-48.52-16.541c-2.88-2.224-6.898-2.224-9.778,0c-14.022,10.822-30.8,16.541-48.519,16.541 c-1.419,0-2.84-0.039-4.263-0.117c-0.105-0.005-0.208-0.018-0.314-0.023c-1.333-0.078-2.667-0.184-3.999-0.329 c-0.044-0.004-0.088-0.012-0.131-0.017c-1.38-0.153-2.757-0.34-4.131-0.564C83.17,173.968,83.098,173.953,83.024,173.94z M124.761,412.135H90.887c-3.13,0-5.676-2.547-5.676-5.676v-35.25h39.55V412.135z M85.212,355.204V190.414 c1.753,0.2,3.52,0.352,5.3,0.456c0.064,0.004,0.128,0.009,0.191,0.012c0.777,0.044,1.556,0.077,2.336,0.101 c0.132,0.004,0.265,0.012,0.397,0.015c0.879,0.025,1.761,0.038,2.645,0.038c19.269,0,37.609-5.629,53.409-16.337 c15.801,10.708,34.141,16.337,53.41,16.337c19.268,0,37.609-5.629,53.409-16.337c15.483,10.492,33.407,16.094,52.251,16.316 l-37.882,37.882c-7.744,7.745-12.008,18.039-12.008,28.99c0,10.952,4.265,21.247,12.008,28.991c1.845,1.845,1.845,4.844,0,6.689 l-61.635,61.635H85.212z M193.035,371.209l-40.926,40.925h-11.343v-40.925H193.035z M265.031,412.135h-20.292l20.292-20.292 V412.135z M320.587,406.459c0,3.13-2.546,5.676-5.676,5.676h-33.874v-36.299l4.628-4.628h34.922V406.459z M320.587,355.204H301.67 l15.319-15.321c0.986-0.986,2.303-1.428,3.597-1.359V355.204z M492.989,205.92L370.344,328.565c-9.745,9.745-25.6,9.745-35.346,0 c-8.085-8.084-21.24-8.083-29.324,0l-162.541,162.54c-6.528,6.528-17.151,6.529-23.679,0.001c-6.528-6.529-6.528-17.152,0-23.68 l162.54-162.539c8.085-8.085,8.085-21.24,0-29.325c-9.744-9.744-9.744-25.6,0-35.345L404.64,117.572 c1.634-1.634,3.781-2.451,5.925-2.451c2.146,0,4.292,0.817,5.926,2.451c3.267,3.267,3.267,8.583,0,11.849l-79.516,79.517 c-3.526,3.526-5.468,8.213-5.468,13.198c0,4.986,1.942,9.674,5.466,13.198c3.526,3.527,8.213,5.469,13.2,5.469 c4.986,0,9.674-1.942,13.198-5.468l79.517-79.517c1.582-1.582,3.687-2.454,5.925-2.454c2.239,0,4.343,0.871,5.925,2.455 c3.267,3.267,3.267,8.584,0,11.852l-79.516,79.516c-3.525,3.526-5.467,8.213-5.467,13.199c0,4.985,1.942,9.673,5.467,13.199 c7.278,7.277,19.12,7.275,26.398,0l79.515-79.517c3.268-3.268,8.584-3.268,11.852,0 C496.257,197.335,496.257,202.652,492.989,205.92z"/> </g> </g> </g>
</svg>